<svg width="32" height="30" viewBox="0 0 32 30" fill="none" xmlns="http://www.w3.org/2000/svg">
<path d="M11.7544 9.35294C13.0005 9.35294 14.0107 8.34276 14.0107 7.09664C14.0107 5.85052 13.0005 4.84033 11.7544 4.84033C10.5082 4.84033 9.49805 5.85052 9.49805 7.09664C9.49805 8.34276 10.5082 9.35294 11.7544 9.35294Z" stroke="#9B9B9B" stroke-miterlimit="10" stroke-linecap="round" stroke-linejoin="round"/>
<path d="M9.97836 1.91216L9.21025 1.86415C8.1061 1.72013 7.14597 2.53624 7.04996 3.64039L7.00195 4.84056" stroke="#9B9B9B" stroke-miterlimit="10" stroke-linecap="round" stroke-linejoin="round"/>
<path d="M30.0457 20.0106L21.3086 27.3076C20.8765 27.6437 20.3964 27.7877 19.8684 27.7397L19.7243 27.2116V9.11316C19.7243 8.58508 19.5323 8.10502 19.1483 7.72097L14.0596 2.44025V2.34424L16.5559 2.58427C17.564 2.68028 18.4762 3.20836 19.1483 3.97646L30.2858 17.2743C30.9579 18.1384 30.8618 19.3385 30.0457 20.0106Z" stroke="#9B9B9B" stroke-miterlimit="10" stroke-linecap="round" stroke-linejoin="round"/>
<path d="M5.27391 6.71253C2.58555 7.76868 1.52941 9.01685 1.09735 9.88096C0.809308 10.457 1.19336 11.1771 1.81744 11.2732C2.44153 11.3692 3.40166 11.4172 4.88986 11.2732C9.11443 10.8411 12.2349 8.63279 11.9948 7.48064C11.8988 6.95257 11.0347 6.61652 9.78653 6.52051" stroke="#9B9B9B" stroke-miterlimit="10" stroke-linecap="round" stroke-linejoin="round"/>
<path d="M7.29004 14.2979H16.3153V25.5794H7.29004V14.2979Z" stroke="#9B9B9B" stroke-miterlimit="10" stroke-linecap="round" stroke-linejoin="round"/>
<path d="M9.78613 16.7939H13.8667V20.5385H9.78613V16.7939Z" stroke="#9B9B9B" stroke-miterlimit="10" stroke-linecap="round" stroke-linejoin="round"/>
<path d="M9.78613 23.083H13.8187" stroke="#9B9B9B" stroke-miterlimit="10" stroke-linecap="round" stroke-linejoin="round"/>
<path d="M10.363 1.57608L4.36221 7.6729C3.97816 8.05696 3.78613 8.53702 3.78613 9.06509V27.6436C3.78613 28.6037 4.55424 29.3238 5.46636 29.3238H17.9961C18.9562 29.3238 19.6763 28.5557 19.6763 27.6436V9.1131C19.6763 8.58503 19.4843 8.10496 19.1002 7.72091L13.1954 1.57608C12.4273 0.807974 11.1311 0.807974 10.363 1.57608Z" stroke="#9B9B9B" stroke-miterlimit="10" stroke-linecap="round" stroke-linejoin="round"/>
</svg>
