<svg width="46" height="46" viewBox="0 0 46 46" fill="none" xmlns="http://www.w3.org/2000/svg">
<path d="M23.8214 11.4995H0.821427C0.367765 11.4995 0 11.8673 0 12.3209V13.1424C0 13.596 0.367765 13.9638 0.821427 13.9638H23.8214C24.2751 13.9638 24.6428 13.596 24.6428 13.1424V12.3209C24.6428 11.8673 24.2751 11.4995 23.8214 11.4995Z" fill="#400C7A"/>
<path d="M21.8965 8.66714C21.8288 8.53036 21.7241 8.41529 21.5943 8.335C21.4645 8.25471 21.3148 8.21241 21.1622 8.21289H3.47848C3.32586 8.21241 3.17615 8.25471 3.04634 8.335C2.91654 8.41529 2.81184 8.53036 2.74413 8.66714L2.14941 9.85575H22.4912L21.8965 8.66714Z" fill="#400C7A"/>
<path d="M5.56872 45.9978H17.0243C16.3215 45.3833 15.7581 44.6256 15.3719 43.7756C14.9857 42.9256 14.7857 42.0029 14.7851 41.0692V40.2478C14.7864 39.8889 14.8665 39.5347 15.0198 39.2102C15.1731 38.8857 15.3958 38.5989 15.6723 38.37C15.1007 37.7652 14.7832 36.9641 14.7851 36.132C14.7871 35.2998 15.1085 34.5002 15.683 33.8982C15.432 33.6967 15.224 33.4469 15.0713 33.1636C14.9187 32.8802 14.8244 32.5692 14.7942 32.2487C14.7657 31.9126 14.8075 31.5742 14.9168 31.255C15.0261 30.9359 15.2006 30.6429 15.4291 30.3948C15.0167 29.9452 14.7871 29.3579 14.7851 28.7478C14.7892 26.3964 15.5687 24.1119 17.0028 22.2485C18.437 20.385 20.4457 19.0466 22.7177 18.4405L22.9345 15.605H1.70801L3.93161 44.4806C3.96493 44.8926 4.15162 45.277 4.45476 45.558C4.7579 45.8389 5.15542 45.9958 5.56872 45.9978Z" fill="#400C7A"/>
<path d="M45.9991 40.2472C45.9991 40.0294 45.9126 39.8204 45.7585 39.6664C45.6045 39.5123 45.3955 39.4258 45.1777 39.4258H17.2492C17.0313 39.4258 16.8224 39.5123 16.6683 39.6664C16.5143 39.8204 16.4277 40.0294 16.4277 40.2472V41.0686C16.429 42.3754 16.9487 43.6282 17.8727 44.5522C18.7967 45.4762 20.0496 45.9959 21.3563 45.9972H41.0706C42.3773 45.9959 43.6301 45.4762 44.5541 44.5522C45.4781 43.6282 45.9978 42.3754 45.9991 41.0686V40.2472Z" fill="#400C7A"/>
<path d="M13.1427 6.56996V2.13425C13.1426 1.95585 13.0844 1.78233 12.977 1.63991C12.8695 1.49749 12.7187 1.39392 12.5471 1.34486L7.88553 0.0108642C7.80735 -0.0103492 7.72397 -0.000252176 7.65311 0.0390114C7.58226 0.078275 7.52949 0.143612 7.50603 0.221149L7.22346 1.21097C7.20139 1.28928 7.21121 1.37315 7.25076 1.44425C7.29031 1.51535 7.35639 1.56792 7.43456 1.59047L10.9084 2.58275C11.0791 2.63256 11.2291 2.73644 11.3358 2.8788C11.4424 3.02115 11.5 3.19427 11.4998 3.37214V6.56996H13.1427Z" fill="#400C7A"/>
<path d="M44.3563 34.499H41.8246C41.5227 34.4995 41.2297 34.602 40.9933 34.7898L38.8149 36.5296C38.4648 36.811 38.0291 36.9644 37.5799 36.9644C37.1307 36.9644 36.695 36.811 36.3449 36.5296L34.1656 34.789C33.9291 34.6014 33.6362 34.4993 33.3344 34.499H18.0706C17.6349 34.499 17.217 34.6721 16.9089 34.9802C16.6008 35.2883 16.4277 35.7062 16.4277 36.1419C16.4277 36.5776 16.6008 36.9955 16.9089 37.3036C17.217 37.6116 17.6349 37.7847 18.0706 37.7847H44.3563C44.792 37.7847 45.2098 37.6116 45.5179 37.3036C45.826 36.9955 45.9991 36.5776 45.9991 36.1419C45.9991 35.7062 45.826 35.2883 45.5179 34.9802C45.2098 34.6721 44.792 34.499 44.3563 34.499Z" fill="#400C7A"/>
<path d="M36.9634 19.7129H25.4634C23.0679 19.7157 20.7713 20.6686 19.0774 22.3625C17.3834 24.0564 16.4306 26.353 16.4277 28.7486C16.4277 28.9664 16.5143 29.1754 16.6683 29.3294C16.8224 29.4835 17.0313 29.57 17.2492 29.57H45.1777C45.3955 29.57 45.6045 29.4835 45.7585 29.3294C45.9126 29.1754 45.9991 28.9664 45.9991 28.7486C45.9963 26.353 45.0434 24.0564 43.3495 22.3625C41.6556 20.6686 39.359 19.7157 36.9634 19.7129ZM25.4634 26.2843H24.642C24.4242 26.2843 24.2152 26.1978 24.0612 26.0437C23.9071 25.8897 23.8206 25.6807 23.8206 25.4629C23.8206 25.245 23.9071 25.0361 24.0612 24.882C24.2152 24.728 24.4242 24.6415 24.642 24.6415H25.4634C25.6813 24.6415 25.8902 24.728 26.0443 24.882C26.1983 25.0361 26.2849 25.245 26.2849 25.4629C26.2849 25.6807 26.1983 25.8897 26.0443 26.0437C25.8902 26.1978 25.6813 26.2843 25.4634 26.2843ZM27.9277 22.9986H27.1063C26.8884 22.9986 26.6795 22.9121 26.5255 22.758C26.3714 22.604 26.2849 22.395 26.2849 22.1772C26.2849 21.9593 26.3714 21.7504 26.5255 21.5963C26.6795 21.4423 26.8884 21.3557 27.1063 21.3557H27.9277C28.1456 21.3557 28.3545 21.4423 28.5086 21.5963C28.6626 21.7504 28.7491 21.9593 28.7491 22.1772C28.7491 22.395 28.6626 22.604 28.5086 22.758C28.3545 22.9121 28.1456 22.9986 27.9277 22.9986ZM32.8563 25.4629H32.0349C31.817 25.4629 31.6081 25.3763 31.454 25.2223C31.3 25.0682 31.2134 24.8593 31.2134 24.6415C31.2134 24.4236 31.3 24.2147 31.454 24.0606C31.6081 23.9066 31.817 23.82 32.0349 23.82H32.8563C33.0741 23.82 33.2831 23.9066 33.4371 24.0606C33.5912 24.2147 33.6777 24.4236 33.6777 24.6415C33.6777 24.8593 33.5912 25.0682 33.4371 25.2223C33.2831 25.3763 33.0741 25.4629 32.8563 25.4629Z" fill="#400C7A"/>
<path d="M17.2491 31.2124C17.1431 31.2116 17.0381 31.232 16.9402 31.2725C16.8422 31.313 16.7534 31.3727 16.679 31.4481C16.5903 31.5325 16.522 31.636 16.4793 31.7507C16.4366 31.8654 16.4206 31.9884 16.4326 32.1102C16.4674 32.3237 16.5789 32.5171 16.7462 32.6543C16.9134 32.7914 17.1249 32.8629 17.3411 32.8552H33.3343C34.0088 32.8563 34.6631 33.0856 35.1907 33.5058L37.3691 35.2448C37.4289 35.2926 37.5032 35.3186 37.5798 35.3186C37.6564 35.3186 37.7307 35.2926 37.7905 35.2448L39.9681 33.5066C40.4956 33.0861 41.1499 32.8565 41.8245 32.8552H45.1776C45.2835 32.8562 45.3884 32.8358 45.4862 32.7953C45.584 32.7548 45.6727 32.695 45.7468 32.6195C45.8349 32.5357 45.9028 32.433 45.9455 32.3192C45.9882 32.2054 46.0045 32.0834 45.9933 31.9623C45.9594 31.7482 45.8484 31.5538 45.6813 31.4157C45.5141 31.2776 45.3023 31.2053 45.0856 31.2124H17.2491Z" fill="#400C7A"/>
</svg>
