<svg width="144" height="37" viewBox="0 0 144 37" fill="none" xmlns="http://www.w3.org/2000/svg">
<path d="M30.5815 28.9913V35.6631H0V30.3893L19.4375 6.69592H0.39766V0.0241699H30.0497V5.29794L10.5452 28.9913" fill="#400C7A"/>
<path d="M125.378 0.0241699C115.609 0.0241699 107.689 7.99268 107.689 17.8219C107.689 27.6512 115.609 35.6197 125.378 35.6197C135.147 35.6197 143.067 27.6512 143.067 17.8219C143.067 7.99268 135.147 0.0241699 125.378 0.0241699ZM125.378 29.5264C118.953 29.5264 113.745 24.2864 113.745 17.8268C113.745 11.3671 118.953 6.12709 125.378 6.12709C131.803 6.12709 137.006 11.3671 137.006 17.8268C137.006 24.2864 131.803 29.5264 125.378 29.5264Z" fill="#400C7A"/>
<mask id="mask0_560_1694" style="mask-type:luminance" maskUnits="userSpaceOnUse" x="32" y="0" width="36" height="37">
<path d="M67.5027 0H32.8223V36.2666H67.5027V0Z" fill="white"/>
</mask>
<g mask="url(#mask0_560_1694)">
<mask id="mask1_560_1694" style="mask-type:luminance" maskUnits="userSpaceOnUse" x="32" y="0" width="36" height="37">
<path d="M60.2292 0.0244141V18.4887C60.2292 24.1776 55.7124 28.8072 50.162 28.8072C44.6116 28.8072 40.0947 24.1776 40.0947 18.4887V0.0244141H32.8457V18.4887C32.8457 28.2775 40.6163 36.2419 50.162 36.2419C59.7077 36.2419 67.4783 28.2824 67.4783 18.4936V0.0244141H60.2292Z" fill="white"/>
</mask>
<g mask="url(#mask1_560_1694)">
<path d="M60.2292 0.0244141V18.4887C60.2292 24.1776 55.7124 28.8072 50.162 28.8072C44.6116 28.8072 40.0947 24.1776 40.0947 18.4887V0.0244141H32.8457V18.4887C32.8457 28.2775 40.6163 36.2419 50.162 36.2419C59.7077 36.2419 67.4783 28.2824 67.4783 18.4936V0.0244141" fill="url(#paint0_linear_560_1694)"/>
</g>
</g>
<mask id="mask2_560_1694" style="mask-type:luminance" maskUnits="userSpaceOnUse" x="70" y="0" width="35" height="37">
<path d="M104.901 0H70.2158V36.2666H104.901V0Z" fill="white"/>
</mask>
<g mask="url(#mask2_560_1694)">
<mask id="mask3_560_1694" style="mask-type:luminance" maskUnits="userSpaceOnUse" x="70" y="0" width="35" height="37">
<path d="M70.2451 17.7727V36.237H77.4941V17.7727C77.4941 12.0838 82.011 7.45428 87.5614 7.45428C93.1118 7.45428 97.6287 12.0838 97.6287 17.7727V36.237H104.878V17.7727C104.878 7.98393 97.1071 0.0244141 87.5614 0.0244141C78.0157 0.0244141 70.2451 7.98393 70.2451 17.7727Z" fill="white"/>
</mask>
<g mask="url(#mask3_560_1694)">
<path d="M70.2451 17.7727V36.237H77.4941V17.7727C77.4941 12.0838 82.011 7.45428 87.5614 7.45428C93.1118 7.45428 97.6287 12.0838 97.6287 17.7727V36.237H104.878V17.7727C104.878 7.98393 97.1071 0.0244141 87.5614 0.0244141C78.0157 0.0244141 70.2451 7.98393 70.2451 17.7727Z" fill="url(#paint1_linear_560_1694)"/>
</g>
</g>
<defs>
<linearGradient id="paint0_linear_560_1694" x1="50.162" y1="36.2419" x2="50.162" y2="0.0244141" gradientUnits="userSpaceOnUse">
<stop offset="0.5" stop-color="#400C7A"/>
<stop offset="1" stop-color="#400C7A" stop-opacity="0"/>
</linearGradient>
<linearGradient id="paint1_linear_560_1694" x1="87.5614" y1="0.0244141" x2="87.5614" y2="36.237" gradientUnits="userSpaceOnUse">
<stop offset="0.5" stop-color="#400C7A"/>
<stop offset="1" stop-color="#400C7A" stop-opacity="0"/>
</linearGradient>
</defs>
</svg>
