<svg width="144" height="37" viewBox="0 0 144 37" fill="none" xmlns="http://www.w3.org/2000/svg">
<path d="M30.5815 28.9916V35.6633H0V30.3896L19.4375 6.69617H0.39766V0.0244141H30.0497V5.29818L10.5452 28.9916" fill="white"/>
<path d="M125.378 0.0244141C115.609 0.0244141 107.689 7.99292 107.689 17.8222C107.689 27.6515 115.609 35.62 125.378 35.62C135.147 35.62 143.067 27.6515 143.067 17.8222C143.067 7.99292 135.147 0.0244141 125.378 0.0244141ZM125.378 29.5267C118.953 29.5267 113.745 24.2867 113.745 17.827C113.745 11.3674 118.953 6.12733 125.378 6.12733C131.803 6.12733 137.006 11.3674 137.006 17.827C137.006 24.2867 131.803 29.5267 125.378 29.5267Z" fill="white"/>
<mask id="mask0_271_566" style="mask-type:luminance" maskUnits="userSpaceOnUse" x="32" y="0" width="36" height="37">
<path d="M67.5027 0H32.8223V36.2666H67.5027V0Z" fill="white"/>
</mask>
<g mask="url(#mask0_271_566)">
<mask id="mask1_271_566" style="mask-type:luminance" maskUnits="userSpaceOnUse" x="32" y="0" width="36" height="37">
<path d="M60.2292 0.0244141V18.4887C60.2292 24.1776 55.7124 28.8072 50.162 28.8072C44.6116 28.8072 40.0947 24.1776 40.0947 18.4887V0.0244141H32.8457V18.4887C32.8457 28.2775 40.6163 36.2419 50.162 36.2419C59.7077 36.2419 67.4783 28.2824 67.4783 18.4936V0.0244141H60.2292Z" fill="white"/>
</mask>
<g mask="url(#mask1_271_566)">
<path d="M60.2292 0.0244141V18.4887C60.2292 24.1776 55.7124 28.8072 50.162 28.8072C44.6116 28.8072 40.0947 24.1776 40.0947 18.4887V0.0244141H32.8457V18.4887C32.8457 28.2775 40.6163 36.2419 50.162 36.2419C59.7077 36.2419 67.4783 28.2824 67.4783 18.4936V0.0244141" fill="url(#paint0_linear_271_566)"/>
</g>
</g>
<mask id="mask2_271_566" style="mask-type:luminance" maskUnits="userSpaceOnUse" x="70" y="0" width="35" height="37">
<path d="M104.901 0H70.2158V36.2666H104.901V0Z" fill="white"/>
</mask>
<g mask="url(#mask2_271_566)">
<mask id="mask3_271_566" style="mask-type:luminance" maskUnits="userSpaceOnUse" x="70" y="0" width="35" height="37">
<path d="M70.2451 17.7727V36.237H77.4941V17.7727C77.4941 12.0838 82.011 7.45428 87.5614 7.45428C93.1118 7.45428 97.6287 12.0838 97.6287 17.7727V36.237H104.878V17.7727C104.878 7.98393 97.1071 0.0244141 87.5614 0.0244141C78.0157 0.0244141 70.2451 7.98393 70.2451 17.7727Z" fill="white"/>
</mask>
<g mask="url(#mask3_271_566)">
<path d="M70.2451 17.7727V36.237H77.4941V17.7727C77.4941 12.0838 82.011 7.45428 87.5614 7.45428C93.1118 7.45428 97.6287 12.0838 97.6287 17.7727V36.237H104.878V17.7727C104.878 7.98393 97.1071 0.0244141 87.5614 0.0244141C78.0157 0.0244141 70.2451 7.98393 70.2451 17.7727Z" fill="url(#paint1_linear_271_566)"/>
</g>
</g>
<defs>
<linearGradient id="paint0_linear_271_566" x1="50.162" y1="36.2419" x2="50.162" y2="0.0244141" gradientUnits="userSpaceOnUse">
<stop offset="0.6" stop-color="white"/>
<stop offset="1" stop-color="white" stop-opacity="0"/>
</linearGradient>
<linearGradient id="paint1_linear_271_566" x1="87.5614" y1="0.0244141" x2="87.5614" y2="36.237" gradientUnits="userSpaceOnUse">
<stop offset="0.6" stop-color="white"/>
<stop offset="1" stop-color="white" stop-opacity="0"/>
</linearGradient>
</defs>
</svg>
