<svg width="26" height="30" viewBox="0 0 26 30" fill="none" xmlns="http://www.w3.org/2000/svg">
<path d="M8.41479 22.3072C8.35689 22.4125 8.26717 22.4441 8.18294 22.4441C8.09871 22.4441 8.01448 22.4125 7.95657 22.3072L7.35072 21.1694V23.4763C7.35072 23.6187 7.177 23.6924 7.00854 23.6924C6.83459 23.6924 6.66614 23.6187 6.66614 23.4763V20.1843C6.66614 19.9317 6.83459 19.8422 7.00854 19.8422C7.25597 19.8422 7.36674 19.8948 7.54047 20.2054L8.18843 21.3853L8.83617 20.2054C9.01012 19.8948 9.12593 19.8422 9.37358 19.8422C9.5473 19.8422 9.71576 19.9317 9.71576 20.1843V23.4763C9.71576 23.6187 9.54204 23.6924 9.37358 23.6924C9.19963 23.6924 9.03117 23.6187 9.03117 23.4763V21.2116L8.41479 22.3072Z" fill="#9B9B9B"/>
<path d="M19.9227 20.0527C19.9227 19.9053 20.0912 19.8422 20.2649 19.8422C20.4336 19.8422 20.6073 19.9053 20.6073 20.0527V22.5178C20.6073 23.3974 20.0491 23.724 19.3432 23.724C18.6321 23.724 18.0791 23.3974 18.0791 22.5178V20.0527C18.0791 19.9053 18.2476 19.8422 18.4215 19.8422C18.59 19.8422 18.7637 19.9053 18.7637 20.0527V22.5178C18.7637 22.9286 18.9798 23.1236 19.3432 23.1236C19.7067 23.1236 19.9225 22.9286 19.9225 22.5178V20.0527H19.9227Z" fill="#9B9B9B"/>
<path d="M21.2768 17.9438H6.57027C6.32468 17.9438 6.12555 18.143 6.12555 18.3886C6.12555 18.6342 6.32468 18.8333 6.57027 18.8333H21.2768C21.5227 18.8333 21.7216 18.6342 21.7216 18.3886C21.7216 18.143 21.5227 17.9438 21.2768 17.9438Z" fill="#9B9B9B"/>
<path d="M11.6221 21.4959H12.4228C12.5596 21.4959 12.6386 21.6277 12.6386 21.7698C12.6386 21.8909 12.5702 22.0333 12.4228 22.0333H11.6221V23.0919H13.1126C13.2497 23.0919 13.3287 23.234 13.3287 23.3974C13.3287 23.5396 13.2602 23.6925 13.1126 23.6925H11.2376C11.0849 23.6925 10.9373 23.6185 10.9373 23.4764V20.058C10.9373 19.9159 11.0847 19.842 11.2376 19.842H13.1126C13.2602 19.842 13.3287 19.9949 13.3287 20.137C13.3287 20.3004 13.2497 20.4426 13.1126 20.4426H11.6221V21.4959Z" fill="#9B9B9B"/>
<path d="M16.1359 23.4764L15.0034 21.359V23.4764C15.0034 23.6188 14.8297 23.6925 14.661 23.6925C14.4873 23.6925 14.3186 23.6188 14.3186 23.4764V20.058C14.3186 19.9106 14.4873 19.8422 14.661 19.8422C14.9087 19.8422 15.0087 19.8949 15.1721 20.2054L16.1886 22.1702V20.0528C16.1886 19.9054 16.357 19.842 16.531 19.842C16.6994 19.842 16.8732 19.9052 16.8732 20.0528V23.4764C16.8732 23.6185 16.6994 23.6925 16.531 23.6925C16.3676 23.6925 16.2254 23.6398 16.1359 23.4764Z" fill="#9B9B9B"/>
<path d="M21.0294 12.4294H20.5977C20.4311 9.3649 18.1911 6.84309 15.2593 6.24617L15.3451 5.42563C15.3733 5.15784 15.2859 4.88959 15.1057 4.68977C14.9256 4.48973 14.6679 4.37506 14.3987 4.37506H13.4486C13.1792 4.37506 12.9217 4.48996 12.7414 4.68977C12.5612 4.88982 12.474 5.15806 12.5022 5.42563L12.588 6.24617C9.65628 6.84309 7.41621 9.36468 7.24959 12.4292H6.81792C6.43614 12.4292 6.12555 12.7398 6.12555 13.1215V14.0393C6.12555 14.4211 6.43614 14.7317 6.81792 14.7317H21.0292C21.411 14.7317 21.7216 14.4211 21.7216 14.0393V13.1215C21.7216 12.74 21.4112 12.4294 21.0294 12.4294ZM13.4024 5.28509C13.4147 5.27159 13.4301 5.26472 13.4486 5.26472H14.3987C14.417 5.26472 14.4326 5.27159 14.4449 5.28509C14.4573 5.29883 14.4626 5.31508 14.4605 5.33316L14.3774 6.12783C14.2275 6.11776 14.0762 6.11204 13.9238 6.11204C13.7711 6.11204 13.6201 6.11776 13.4701 6.12783L13.3868 5.33316C13.385 5.31508 13.3903 5.29883 13.4024 5.28509ZM20.8321 13.8423H7.01521V13.3188H8.88953C9.13535 13.3188 9.33447 13.1197 9.33447 12.8741C9.33447 12.6285 9.13535 12.4294 8.88953 12.4294H8.14085C8.33083 9.4045 10.8517 7.0017 13.9236 7.0017C16.9956 7.0017 19.5165 9.4045 19.7065 12.4294H10.9591C10.7133 12.4294 10.5144 12.6285 10.5144 12.8741C10.5144 13.1197 10.7133 13.3188 10.9591 13.3188H20.8321V13.8423Z" fill="#9B9B9B"/>
<path d="M21.2768 24.7352H18.7731C18.5273 24.7352 18.3281 24.9344 18.3281 25.1799C18.3281 25.4258 18.5273 25.6247 18.7731 25.6247H21.2768C21.5226 25.6247 21.7215 25.4258 21.7215 25.1799C21.7215 24.9344 21.5226 24.7352 21.2768 24.7352Z" fill="#9B9B9B"/>
<path d="M16.7036 24.7352H6.57027C6.32468 24.7352 6.12555 24.9344 6.12555 25.1799C6.12555 25.4258 6.32468 25.6247 6.57027 25.6247H16.7036C16.9494 25.6247 17.1483 25.4258 17.1483 25.1799C17.1483 24.9344 16.9494 24.7352 16.7036 24.7352Z" fill="#9B9B9B"/>
<path d="M24.4542 0H3.39314C2.76875 0 2.26064 0.508117 2.26064 1.13251V1.93588H1.84567C1.08212 1.93588 0.460938 2.55729 0.460938 3.32084C0.460938 4.08439 1.08212 4.7058 1.84567 4.7058H2.26064V6.60758H1.84567C1.08212 6.60758 0.460938 7.22876 0.460938 7.99254C0.460938 8.75609 1.08212 9.37727 1.84567 9.37727H2.26064V11.2793H1.84567C1.08212 11.2793 0.460938 11.9005 0.460938 12.6642C0.460938 13.4278 1.08212 14.049 1.84567 14.049H2.26064V15.951H1.84567C1.08212 15.951 0.460938 16.5722 0.460938 17.3357C0.460938 18.0995 1.08212 18.7207 1.84567 18.7207H2.26064V20.6227H1.84567C1.08212 20.6227 0.460938 21.2439 0.460938 22.0074C0.460938 22.7712 1.08212 23.3924 1.84567 23.3924H2.26064V25.2944H1.84567C1.08212 25.2944 0.460938 25.9156 0.460938 26.6791C0.460938 27.4427 1.08212 28.0641 1.84567 28.0641H2.26064V28.8674C2.26064 29.4918 2.76875 29.9999 3.39314 29.9999H24.4542C25.0786 29.9999 25.5869 29.4918 25.5869 28.8674V1.13251C25.5869 0.508117 25.0786 0 24.4542 0ZM2.26041 3.81637H1.84567C1.57262 3.81637 1.35037 3.59412 1.35037 3.32084C1.35037 3.04778 1.57262 2.82554 1.84567 2.82554H2.26041V3.81637ZM2.26041 8.48784H1.84567C1.57262 8.48784 1.35037 8.26559 1.35037 7.99254C1.35037 7.71925 1.57262 7.49724 1.84567 7.49724H2.26041V8.48784ZM2.26041 13.1595H1.84567C1.57262 13.1595 1.35037 12.9373 1.35037 12.6642C1.35037 12.391 1.57262 12.1687 1.84567 12.1687H2.26041V13.1595ZM2.26041 17.8312H1.84567C1.57262 17.8312 1.35037 17.609 1.35037 17.3357C1.35037 17.0627 1.57262 16.8404 1.84567 16.8404H2.26041V17.8312ZM2.26041 22.5027H1.84567C1.57262 22.5027 1.35037 22.2807 1.35037 22.0074C1.35037 21.7343 1.57262 21.5121 1.84567 21.5121H2.26041V22.5027ZM2.26041 27.1744H1.84567C1.57262 27.1744 1.35037 26.9522 1.35037 26.6791C1.35037 26.4058 1.57262 26.1838 1.84567 26.1838H2.26041V27.1744ZM24.6972 28.8672C24.6972 29.0013 24.5883 29.1105 24.4542 29.1105H3.39314C3.25902 29.1105 3.15007 29.0013 3.15007 28.8672V1.13251C3.15007 0.99861 3.25902 0.889433 3.39314 0.889433H24.4542C24.5883 0.889433 24.6972 0.99861 24.6972 1.13251V28.8672Z" fill="#9B9B9B"/>
</svg>
