<svg width="416" height="357" viewBox="0 0 416 357" fill="none" xmlns="http://www.w3.org/2000/svg">
<mask id="path-1-outside-1_1_203" maskUnits="userSpaceOnUse" x="0" y="0" width="416" height="357" fill="black">
<rect fill="white" width="416" height="357"/>
<path fill-rule="evenodd" clip-rule="evenodd" d="M22 1C10.402 1 1 10.402 1 22V36V53V336C1 347.046 9.95432 356 21 356H395C406.046 356 415 347.046 415 336V56C415 44.9543 406.046 36 395 36H170C162.268 36 156 29.732 156 22V22C156 10.402 146.598 1 135 1H22Z"/>
</mask>
<path fill-rule="evenodd" clip-rule="evenodd" d="M22 1C10.402 1 1 10.402 1 22V36V53V336C1 347.046 9.95432 356 21 356H395C406.046 356 415 347.046 415 336V56C415 44.9543 406.046 36 395 36H170C162.268 36 156 29.732 156 22V22C156 10.402 146.598 1 135 1H22Z" fill="white"/>
<path d="M2 22C2 10.9543 10.9543 2 22 2V0C9.84974 0 0 9.84973 0 22H2ZM2 36V22H0V36H2ZM2 53V36H0V53H2ZM2 336V53H0V336H2ZM395 355H21V357H395V355ZM414 56V336H416V56H414ZM170 37H395V35H170V37ZM135 2C146.046 2 155 10.9543 155 22H157C157 9.84974 147.15 0 135 0V2ZM22 2H135V0H22V2ZM170 35C162.82 35 157 29.1797 157 22H155C155 30.2843 161.716 37 170 37V35ZM416 56C416 44.402 406.598 35 395 35V37C405.493 37 414 45.5066 414 56H416ZM395 357C406.598 357 416 347.598 416 336H414C414 346.493 405.493 355 395 355V357ZM0 336C0 347.598 9.40203 357 21 357V355C10.5066 355 2 346.493 2 336H0Z" fill="#D0D0D0" mask="url(#path-1-outside-1_1_203)"/>
</svg>
