<svg width="15" height="15" viewBox="0 0 15 15" fill="none" xmlns="http://www.w3.org/2000/svg">
<circle cx="7.5" cy="7.5" r="7.5" fill="#FF6E01"/>
<path d="M8.71787 10.6473H6.21501C6.05016 10.6474 5.88818 10.6041 5.74539 10.5217C5.60259 10.4393 5.48401 10.3208 5.40159 10.178L4.15016 7.98799C4.06778 7.84531 4.02441 7.68346 4.02441 7.5187C4.02441 7.35395 4.06778 7.1921 4.15016 7.04942L5.40159 4.85942C5.48401 4.71665 5.60259 4.59811 5.74539 4.51573C5.88818 4.43335 6.05016 4.39003 6.21501 4.39014H8.71787C8.88272 4.39003 9.0447 4.43335 9.18749 4.51573C9.33029 4.59811 9.44887 4.71665 9.53129 4.85942L10.7827 7.04942C10.8651 7.1921 10.9085 7.35395 10.9085 7.5187C10.9085 7.68346 10.8651 7.84531 10.7827 7.98799L9.53129 10.178C9.44887 10.3208 9.33029 10.4393 9.18749 10.5217C9.0447 10.6041 8.88272 10.6474 8.71787 10.6473ZM6.21501 5.01585C6.15988 5.01563 6.10568 5.02998 6.05788 5.05745C6.01008 5.08492 5.97039 5.12454 5.94283 5.17228L4.6914 7.36228C4.66394 7.40984 4.64949 7.46379 4.64949 7.5187C4.64949 7.57362 4.66394 7.62757 4.6914 7.67513L5.94283 9.86513C5.97039 9.91287 6.01008 9.95248 6.05788 9.97995C6.10568 10.0074 6.15988 10.0218 6.21501 10.0216H8.71787C8.77299 10.0218 8.8272 10.0074 8.875 9.97995C8.9228 9.95248 8.96249 9.91287 8.99005 9.86513L10.2415 7.67513C10.2689 7.62757 10.2834 7.57362 10.2834 7.5187C10.2834 7.46379 10.2689 7.40984 10.2415 7.36228L8.99005 5.17228C8.96249 5.12454 8.9228 5.08492 8.875 5.05745C8.8272 5.02998 8.77299 5.01563 8.71787 5.01585H6.21501Z" fill="white"/>
<path d="M10.5389 7.20609L9.27181 5.01609C9.2159 4.91921 9.13504 4.83908 9.03765 4.78406C8.94026 4.72903 8.8299 4.70113 8.71805 4.70324H6.2152C6.10336 4.70113 5.993 4.72903 5.89561 4.78406C5.79822 4.83908 5.71736 4.91921 5.66145 5.01609L4.39438 7.20609C4.33946 7.30121 4.31055 7.40911 4.31055 7.51895C4.31055 7.62878 4.33946 7.73668 4.39438 7.8318L5.66145 10.0218C5.71736 10.1187 5.79822 10.1988 5.89561 10.2538C5.993 10.3089 6.10336 10.3368 6.2152 10.3347H8.71805C8.82778 10.3345 8.93555 10.3056 9.03055 10.2507C9.12555 10.1958 9.20443 10.1168 9.2593 10.0218L10.5264 7.8318C10.5832 7.73779 10.6143 7.63046 10.6165 7.52062C10.6187 7.41079 10.5919 7.3023 10.5389 7.20609ZM7.46663 8.45752C7.281 8.45752 7.09953 8.40247 6.94519 8.29934C6.79084 8.19621 6.67054 8.04962 6.5995 7.87812C6.52846 7.70662 6.50988 7.51791 6.54609 7.33584C6.58231 7.15378 6.6717 6.98654 6.80296 6.85528C6.93422 6.72402 7.10146 6.63463 7.28352 6.59841C7.46559 6.5622 7.6543 6.58078 7.8258 6.65182C7.9973 6.72286 8.14389 6.84316 8.24702 6.9975C8.35015 7.15185 8.4052 7.33332 8.4052 7.51895C8.4052 7.76787 8.30631 8.0066 8.1303 8.18262C7.95428 8.35863 7.71555 8.45752 7.46663 8.45752Z" fill="white"/>
</svg>
