<svg width="50" height="50" viewBox="0 0 50 50" fill="none" xmlns="http://www.w3.org/2000/svg">
<path d="M49.9995 25C49.9995 38.8071 38.8066 50 24.9995 50C11.1924 50 -0.000488281 38.8071 -0.000488281 25C-0.000488281 11.1929 11.1924 0 24.9995 0C38.8066 0 49.9995 11.1929 49.9995 25Z" fill="#FF6E01"/>
<path d="M16 32.8652C16 28.447 19.5817 24.8652 24 24.8652H26.1108C30.5291 24.8652 34.1108 28.447 34.1108 32.8652V37.3555H16V32.8652Z" fill="white"/>
<path d="M30.3643 18.3084C30.3643 21.2401 27.9876 23.6167 25.0559 23.6167C22.1242 23.6167 19.7476 21.2401 19.7476 18.3084C19.7476 15.3766 22.1242 13 25.0559 13C27.9876 13 30.3643 15.3766 30.3643 18.3084Z" fill="white"/>
</svg>
